<svg id="Calque_1" data-name="Calque 1" xmlns="http://www.w3.org/2000/svg" xmlns:xlink="http://www.w3.org/1999/xlink" viewBox="0 0 468.65 728.22"><defs><style>.cls-1{fill:none;}.cls-1,.cls-2,.cls-3,.cls-6{stroke:#6567ac;stroke-miterlimit:10;}.cls-2{fill:url(#Dégradé_sans_nom_35);}.cls-3,.cls-4{fill:#6567ac;}.cls-5{fill:#1d1d1b;}.cls-6{fill:url(#Dégradé_sans_nom_35-2);}</style><linearGradient id="Dégradé_sans_nom_35" x1="588.77" x2="823.76" gradientUnits="userSpaceOnUse"><stop offset="0.02" stop-color="#6667ac"/><stop offset="1" stop-color="#7f789b" stop-opacity="0"/></linearGradient><linearGradient id="Dégradé_sans_nom_35-2" x1="465.2" y1="454.49" x2="549.24" y2="454.49" xlink:href="#Dégradé_sans_nom_35"/></defs><path class="cls-1" d="M696-179a201.74,201.74,0,0,0-42.44-13.42A164.3,164.3,0,0,1,696-179Z" transform="translate(-444.8 196.83)"/><path class="cls-2" d="M823.76,6.53v4.22A202.88,202.88,0,0,1,706.17,194.87,165.6,165.6,0,0,0,798.05,46.55h0A165.46,165.46,0,0,0,632.45-119,43.47,43.47,0,0,0,589-75.58V97.07a41.94,41.94,0,0,1-.21-4.21V-151.4a43.47,43.47,0,0,1,43.47-43.47,166.18,166.18,0,0,1,28.32,2.41A201.74,201.74,0,0,1,703-179,202.9,202.9,0,0,1,823.76,6.53Z" transform="translate(-444.8 196.83)"/><path class="cls-3" d="M798.05,46.55h0a165.6,165.6,0,0,1-91.88,148.32A200.88,200.88,0,0,1,659.35,210h0a204.07,204.07,0,0,1-38.4,3.63H597.32a64.17,64.17,0,0,1-64.18-64.17V-132.17a64.16,64.16,0,0,1,64.18-64.16h23.59a203.88,203.88,0,0,1,39.65,3.87,166.18,166.18,0,0,0-28.32-2.41,43.47,43.47,0,0,0-43.47,43.47V92.86a41.94,41.94,0,0,0,.21,4.21,43.47,43.47,0,0,0,43.26,39.25,165.08,165.08,0,0,0,117.1-48.5A165.19,165.19,0,0,0,793.58,8.21,165.84,165.84,0,0,1,798.05,46.55Z" transform="translate(-444.8 196.83)"/><path class="cls-4" d="M456.72,302v-48.6H468.6q6.18,0,9.63,1.59a9.37,9.37,0,0,1,4.89,5,22.35,22.35,0,0,1,1.44,8.67v17.7a23.43,23.43,0,0,1-1.44,8.88,9.62,9.62,0,0,1-4.83,5.13Q474.9,302,468.84,302Zm9.9-6.9h2.1a6.75,6.75,0,0,0,3.93-.87,3.9,3.9,0,0,0,1.47-2.58,25,25,0,0,0,.3-4.23v-20a17,17,0,0,0-.39-4,3.53,3.53,0,0,0-1.56-2.25,7.58,7.58,0,0,0-3.81-.72h-2Z" transform="translate(-444.8 196.83)"/><path class="cls-4" d="M491.22,302v-48.6h9.84V302Z" transform="translate(-444.8 196.83)"/><path class="cls-4" d="M520.92,302.74a13.12,13.12,0,0,1-7.8-2.07,11.18,11.18,0,0,1-4.11-5.88,28.54,28.54,0,0,1-1.23-8.85V269.68a28.58,28.58,0,0,1,1.26-9,10.74,10.74,0,0,1,4.41-5.82q3.15-2,8.55-2a16.61,16.61,0,0,1,8.25,1.74,10,10,0,0,1,4.35,4.92,19.85,19.85,0,0,1,1.32,7.56v2.82h-9.66v-3.42a22.48,22.48,0,0,0-.24-3.39,4.12,4.12,0,0,0-1.11-2.31,3.93,3.93,0,0,0-2.79-.84,3.66,3.66,0,0,0-2.88,1,4.89,4.89,0,0,0-1.14,2.61,21.47,21.47,0,0,0-.24,3.39v21.54a16.94,16.94,0,0,0,.36,3.66,4.66,4.66,0,0,0,1.35,2.52,4.88,4.88,0,0,0,5.73-.06,5.23,5.23,0,0,0,1.41-2.61,16.37,16.37,0,0,0,.39-3.75v-5.16h-4.74v-6H536v25h-6.48l-.6-4.38a9.09,9.09,0,0,1-2.88,3.66A8.42,8.42,0,0,1,520.92,302.74Z" transform="translate(-444.8 196.83)"/><path class="cls-4" d="M542.93,302v-48.6h9.85V302Z" transform="translate(-444.8 196.83)"/><path class="cls-4" d="M564.77,302V260.8h-7.5v-7.38h24.84v7.38h-7.38V302Z" transform="translate(-444.8 196.83)"/><path class="cls-4" d="M582.35,302l9.42-48.6h11l9.36,48.6h-9.18l-1.74-10.68h-7.68L591.65,302Zm12.06-16.74h5.82l-2.94-19.62Z" transform="translate(-444.8 196.83)"/><path class="cls-4" d="M616.67,302v-48.6h9.9V295.3H638V302Z" transform="translate(-444.8 196.83)"/><path class="cls-4" d="M669.89,302.68a15.41,15.41,0,0,1-7.5-1.65,10.49,10.49,0,0,1-4.53-5,23,23,0,0,1-1.77-8.49l8.52-1.44a24.83,24.83,0,0,0,.63,5,6.08,6.08,0,0,0,1.56,3,3.66,3.66,0,0,0,2.61,1,2.75,2.75,0,0,0,2.61-1.2,5.44,5.44,0,0,0,.69-2.76,8.64,8.64,0,0,0-1.47-5.13,24.47,24.47,0,0,0-3.87-4.17l-5-4.38a20.3,20.3,0,0,1-4.41-5.16,13.65,13.65,0,0,1-1.71-7.08q0-6,3.51-9.21t9.63-3.21a13.12,13.12,0,0,1,6,1.2,9.17,9.17,0,0,1,3.63,3.21,13.17,13.17,0,0,1,1.8,4.38,29.56,29.56,0,0,1,.63,4.71L673,267.58a37.7,37.7,0,0,0-.39-3.9,5.33,5.33,0,0,0-1.08-2.64,3,3,0,0,0-2.43-1,2.86,2.86,0,0,0-2.58,1.29,5.11,5.11,0,0,0-.84,2.85,7.14,7.14,0,0,0,1.17,4.23A20.72,20.72,0,0,0,670,271.9l4.92,4.32a28,28,0,0,1,5.25,6,15.11,15.11,0,0,1,2.19,8.37,12.34,12.34,0,0,1-1.56,6.18,11.15,11.15,0,0,1-4.35,4.32A13.25,13.25,0,0,1,669.89,302.68Z" transform="translate(-444.8 196.83)"/><path class="cls-4" d="M701.15,302.68a16.06,16.06,0,0,1-8.46-1.92,10.68,10.68,0,0,1-4.47-5.49,24.2,24.2,0,0,1-1.35-8.55V268.6a24,24,0,0,1,1.35-8.52,10.39,10.39,0,0,1,4.47-5.4,20.23,20.23,0,0,1,17,0,10.51,10.51,0,0,1,4.5,5.4,23.7,23.7,0,0,1,1.35,8.49v18.12a24.2,24.2,0,0,1-1.35,8.55,10.64,10.64,0,0,1-4.5,5.49A16.36,16.36,0,0,1,701.15,302.68Zm0-7.14a3.94,3.94,0,0,0,2.82-.87,4.37,4.37,0,0,0,1.2-2.34,15.74,15.74,0,0,0,.3-3.15v-23a15.3,15.3,0,0,0-.3-3.12,4.35,4.35,0,0,0-1.2-2.31,3.94,3.94,0,0,0-2.82-.87,3.75,3.75,0,0,0-2.7.87,4.35,4.35,0,0,0-1.2,2.31,15.3,15.3,0,0,0-.3,3.12v23a17.44,17.44,0,0,0,.27,3.15,4.21,4.21,0,0,0,1.17,2.34A3.84,3.84,0,0,0,701.15,295.54Z" transform="translate(-444.8 196.83)"/><path class="cls-4" d="M722.15,302v-48.6h9.9V295.3h11.4V302Z" transform="translate(-444.8 196.83)"/><path class="cls-4" d="M761,302.68q-5.52,0-8.58-1.89a10,10,0,0,1-4.29-5.46,26.79,26.79,0,0,1-1.23-8.67V253.42h9.78V288a23.05,23.05,0,0,0,.27,3.54,5.52,5.52,0,0,0,1.2,2.82,3.56,3.56,0,0,0,2.85,1.08,3.64,3.64,0,0,0,2.91-1.08,5.33,5.33,0,0,0,1.17-2.82,25.88,25.88,0,0,0,.24-3.54V253.42h9.78v33.24a26.79,26.79,0,0,1-1.23,8.67,10,10,0,0,1-4.29,5.46Q766.55,302.68,761,302.68Z" transform="translate(-444.8 196.83)"/><path class="cls-4" d="M786.59,302V260.8h-7.5v-7.38h24.84v7.38h-7.38V302Z" transform="translate(-444.8 196.83)"/><path class="cls-4" d="M808.43,302v-48.6h9.84V302Z" transform="translate(-444.8 196.83)"/><path class="cls-4" d="M839.27,302.68a16.06,16.06,0,0,1-8.46-1.92,10.68,10.68,0,0,1-4.47-5.49,24.2,24.2,0,0,1-1.35-8.55V268.6a24,24,0,0,1,1.35-8.52,10.39,10.39,0,0,1,4.47-5.4,20.23,20.23,0,0,1,17,0,10.51,10.51,0,0,1,4.5,5.4,23.7,23.7,0,0,1,1.35,8.49v18.12a24.2,24.2,0,0,1-1.35,8.55,10.64,10.64,0,0,1-4.5,5.49A16.36,16.36,0,0,1,839.27,302.68Zm0-7.14a3.94,3.94,0,0,0,2.82-.87,4.37,4.37,0,0,0,1.2-2.34,15.74,15.74,0,0,0,.3-3.15v-23a15.3,15.3,0,0,0-.3-3.12,4.35,4.35,0,0,0-1.2-2.31,3.94,3.94,0,0,0-2.82-.87,3.75,3.75,0,0,0-2.7.87,4.35,4.35,0,0,0-1.2,2.31,15.3,15.3,0,0,0-.3,3.12v23a17.44,17.44,0,0,0,.27,3.15,4.21,4.21,0,0,0,1.17,2.34A3.84,3.84,0,0,0,839.27,295.54Z" transform="translate(-444.8 196.83)"/><path class="cls-4" d="M860.27,302v-48.6h6.9L878,278.74V253.42h8.16V302h-6.6l-10.8-26.88V302Z" transform="translate(-444.8 196.83)"/><path class="cls-5" d="M516.76,338V317.41H513v-3.69h12.42v3.69h-3.69V338Z" transform="translate(-444.8 196.83)"/><path class="cls-5" d="M527.38,338v-24.3h4.5v8.55a7.22,7.22,0,0,1,2-1.41,5.42,5.42,0,0,1,2.28-.48,2.69,2.69,0,0,1,1.73.54,3.2,3.2,0,0,1,1,1.42,5.71,5.71,0,0,1,.33,2V338H534.7V325.09a2.19,2.19,0,0,0-.21-1.08.89.89,0,0,0-.84-.36,2.14,2.14,0,0,0-.82.19,5,5,0,0,0-1,.53V338Z" transform="translate(-444.8 196.83)"/><path class="cls-5" d="M547.66,338.32a6.63,6.63,0,0,1-3.21-.71,4.55,4.55,0,0,1-2-2.07,7.47,7.47,0,0,1-.66-3.28v-5.82a7.47,7.47,0,0,1,.66-3.32,4.54,4.54,0,0,1,2-2,6.67,6.67,0,0,1,3.18-.7,6.31,6.31,0,0,1,3.21.72,4.29,4.29,0,0,1,1.81,2.1,8.42,8.42,0,0,1,.59,3.36v3h-7V333a3.86,3.86,0,0,0,.16,1.23,1.25,1.25,0,0,0,.47.67,1.35,1.35,0,0,0,.75.2,1.39,1.39,0,0,0,.74-.2,1.12,1.12,0,0,0,.46-.61,3.38,3.38,0,0,0,.15-1.11v-1.65h4.2v1.44a5.31,5.31,0,0,1-1.44,4A5.75,5.75,0,0,1,547.66,338.32Zm-1.35-10.89H549v-1.71a4.09,4.09,0,0,0-.15-1.22,1.15,1.15,0,0,0-.46-.66,1.51,1.51,0,0,0-.8-.19,1.22,1.22,0,0,0-.74.21,1.32,1.32,0,0,0-.43.73,5.73,5.73,0,0,0-.15,1.49Z" transform="translate(-444.8 196.83)"/><path class="cls-5" d="M563.77,338v-24.3h6.15a15,15,0,0,1,2.94.27,6.48,6.48,0,0,1,2.38,1,4.44,4.44,0,0,1,1.59,1.9,7.7,7.7,0,0,1,.56,3.17,6.64,6.64,0,0,1-.42,2.5,3.84,3.84,0,0,1-1.2,1.64,4.4,4.4,0,0,1-1.92.81,5,5,0,0,1,2.37,1,4.55,4.55,0,0,1,1.44,2,8.18,8.18,0,0,1,.48,3,9.77,9.77,0,0,1-.47,3.18,5.52,5.52,0,0,1-1.36,2.22,5.7,5.7,0,0,1-2.22,1.3A9.78,9.78,0,0,1,571,338Zm5-14.49H570a4,4,0,0,0,1.95-.38,2,2,0,0,0,.91-1.14,5.94,5.94,0,0,0,.26-1.87,3.69,3.69,0,0,0-.38-1.79,2.16,2.16,0,0,0-1.13-1,5.42,5.42,0,0,0-1.94-.3h-.9Zm0,11h1.38a3,3,0,0,0,2.56-.93,4.59,4.59,0,0,0,.71-2.79,6.55,6.55,0,0,0-.33-2.3,2.35,2.35,0,0,0-1.07-1.26,4.06,4.06,0,0,0-2-.4h-1.29Z" transform="translate(-444.8 196.83)"/><path class="cls-5" d="M586.18,338.32a6.63,6.63,0,0,1-3.21-.71,4.55,4.55,0,0,1-2-2.07,7.47,7.47,0,0,1-.66-3.28v-5.82a7.47,7.47,0,0,1,.66-3.32,4.54,4.54,0,0,1,2-2,6.67,6.67,0,0,1,3.18-.7,6.31,6.31,0,0,1,3.21.72,4.29,4.29,0,0,1,1.81,2.1,8.6,8.6,0,0,1,.59,3.36v3h-7V333a3.86,3.86,0,0,0,.16,1.23,1.25,1.25,0,0,0,.47.67,1.47,1.47,0,0,0,1.48,0,1.14,1.14,0,0,0,.47-.61,3.38,3.38,0,0,0,.15-1.11v-1.65h4.2v1.44a5.31,5.31,0,0,1-1.44,4A5.75,5.75,0,0,1,586.18,338.32Zm-1.35-10.89h2.73v-1.71a4.09,4.09,0,0,0-.15-1.22,1.16,1.16,0,0,0-.47-.66,1.47,1.47,0,0,0-.79-.19,1.22,1.22,0,0,0-.74.21,1.32,1.32,0,0,0-.43.73,5.73,5.73,0,0,0-.15,1.49Z" transform="translate(-444.8 196.83)"/><path class="cls-5" d="M599.56,338.32a6,6,0,0,1-3.71-1.1,7,7,0,0,1-2.26-3.37l3.18-1.32a5.89,5.89,0,0,0,1.08,2,1.92,1.92,0,0,0,1.47.71,1.36,1.36,0,0,0,.94-.29,1,1,0,0,0,.32-.79,2,2,0,0,0-.48-1.29,14.57,14.57,0,0,0-1.71-1.59l-1.62-1.38a12.5,12.5,0,0,1-2-2.15,4.42,4.42,0,0,1-.76-2.65,4.31,4.31,0,0,1,.7-2.46,4.79,4.79,0,0,1,1.89-1.64,5.73,5.73,0,0,1,2.57-.58,5,5,0,0,1,3.49,1.21,6.12,6.12,0,0,1,1.85,3.29l-2.94,1.32a6.47,6.47,0,0,0-.48-1.25,3.09,3.09,0,0,0-.77-1,1.56,1.56,0,0,0-1-.39,1.18,1.18,0,0,0-.87.33,1.14,1.14,0,0,0-.33.84,1.73,1.73,0,0,0,.55,1.14,18.39,18.39,0,0,0,1.55,1.44l1.62,1.44c.48.42,1,.86,1.41,1.33a6.65,6.65,0,0,1,1.14,1.56,4.18,4.18,0,0,1,.45,2,4.4,4.4,0,0,1-.72,2.55,4.57,4.57,0,0,1-1.91,1.59A6.16,6.16,0,0,1,599.56,338.32Z" transform="translate(-444.8 196.83)"/><path class="cls-5" d="M612.1,338.2a6,6,0,0,1-2.82-.56,2.94,2.94,0,0,1-1.41-1.6,7.35,7.35,0,0,1-.39-2.55v-9.84h-1.71v-3h1.71v-5.25h4.59v5.25h2.52v3h-2.52v9.42a1.43,1.43,0,0,0,.4,1.15,1.7,1.7,0,0,0,1.13.35,5.09,5.09,0,0,0,.69-.05l.6-.07V338l-1.2.13C613.17,338.17,612.64,338.2,612.1,338.2Z" transform="translate(-444.8 196.83)"/><path class="cls-5" d="M631.78,338.35a8,8,0,0,1-4.23-1,5.36,5.36,0,0,1-2.24-2.75,12.08,12.08,0,0,1-.67-4.27v-9.06a12,12,0,0,1,.67-4.26,5.21,5.21,0,0,1,2.24-2.7,10.13,10.13,0,0,1,8.5,0,5.26,5.26,0,0,1,2.25,2.7,11.87,11.87,0,0,1,.68,4.25v9.06a12.07,12.07,0,0,1-.68,4.27,5.33,5.33,0,0,1-2.25,2.75A8.16,8.16,0,0,1,631.78,338.35Zm0-3.57a2,2,0,0,0,1.41-.44,2.19,2.19,0,0,0,.6-1.17,7.82,7.82,0,0,0,.15-1.57V320.11a7.65,7.65,0,0,0-.15-1.56,2.19,2.19,0,0,0-.6-1.16,2,2,0,0,0-1.41-.43,1.87,1.87,0,0,0-1.35.43,2.19,2.19,0,0,0-.6,1.16,7.65,7.65,0,0,0-.15,1.56V331.6a8.68,8.68,0,0,0,.13,1.57,2.11,2.11,0,0,0,.59,1.17A1.92,1.92,0,0,0,631.78,334.78Z" transform="translate(-444.8 196.83)"/><path class="cls-5" d="M642.7,338V323.77H641v-3.09h1.74v-1.2a10.23,10.23,0,0,1,.31-2.7,3,3,0,0,1,1.28-1.77,5.44,5.44,0,0,1,2.94-.63c.4,0,.77,0,1.12,0s.75.06,1.19.12v3.36l-.53-.11a3.48,3.48,0,0,0-.55,0,1.12,1.12,0,0,0-.93.37,1.91,1.91,0,0,0-.3,1.19v1.38h2.31v3.09h-2.31V338Z" transform="translate(-444.8 196.83)"/><path class="cls-5" d="M662.35,338v-9.63l-4.74-14.67h4.65l2.61,8.55,2.43-8.55h4.5l-4.68,14.67V338Z" transform="translate(-444.8 196.83)"/><path class="cls-5" d="M678.64,338.32a6.91,6.91,0,0,1-3.18-.68,4.51,4.51,0,0,1-2-2,6.87,6.87,0,0,1-.67-3.21v-6.24a6.87,6.87,0,0,1,.67-3.21,4.53,4.53,0,0,1,2-2,7.88,7.88,0,0,1,6.36,0,4.61,4.61,0,0,1,2,2,6.75,6.75,0,0,1,.69,3.21v6.24a6.75,6.75,0,0,1-.69,3.21,4.59,4.59,0,0,1-2,2A6.91,6.91,0,0,1,678.64,338.32Zm0-3.06a1.15,1.15,0,0,0,.87-.32,1.6,1.6,0,0,0,.39-.87,8,8,0,0,0,.09-1.27v-6.87a8,8,0,0,0-.09-1.29,1.67,1.67,0,0,0-.39-.87,1.31,1.31,0,0,0-1.74,0,1.77,1.77,0,0,0-.41.87,6.9,6.9,0,0,0-.1,1.29v6.87a6.89,6.89,0,0,0,.1,1.27,1.69,1.69,0,0,0,.41.87A1.15,1.15,0,0,0,678.67,335.26Z" transform="translate(-444.8 196.83)"/><path class="cls-5" d="M690.22,338.32a2.82,2.82,0,0,1-1.76-.54,3.11,3.11,0,0,1-1-1.44,5.71,5.71,0,0,1-.33-2V320.68h4.53v13a2,2,0,0,0,.24,1.09,1,1,0,0,0,.87.38,1.76,1.76,0,0,0,.76-.2,7.72,7.72,0,0,0,.83-.46V320.68h4.53V338h-4.53V336.4a8,8,0,0,1-1.94,1.39A4.73,4.73,0,0,1,690.22,338.32Z" transform="translate(-444.8 196.83)"/><path class="cls-5" d="M702,338V320.68h4.53v2.79a8.61,8.61,0,0,1,1.72-2.27,3,3,0,0,1,2-.73h.37a1.16,1.16,0,0,1,.32.08v4.56a4.38,4.38,0,0,0-.75-.26,3.57,3.57,0,0,0-.87-.1,2.81,2.81,0,0,0-1.53.43,4.89,4.89,0,0,0-1.29,1.25V338Z" transform="translate(-444.8 196.83)"/><path class="cls-5" d="M727.15,338.35a7.71,7.71,0,0,1-3.75-.83,5.26,5.26,0,0,1-2.27-2.49,11.48,11.48,0,0,1-.88-4.24l4.26-.72a12.4,12.4,0,0,0,.31,2.5,3,3,0,0,0,.78,1.5,1.84,1.84,0,0,0,1.31.5,1.37,1.37,0,0,0,1.3-.6,2.72,2.72,0,0,0,.35-1.38,4.34,4.34,0,0,0-.74-2.57,12.18,12.18,0,0,0-1.93-2.08l-2.52-2.19a10.17,10.17,0,0,1-2.21-2.58,6.82,6.82,0,0,1-.85-3.54,5.93,5.93,0,0,1,1.75-4.61,6.88,6.88,0,0,1,4.82-1.6,6.56,6.56,0,0,1,3,.6,4.56,4.56,0,0,1,1.81,1.6,6.59,6.59,0,0,1,.9,2.19,14.85,14.85,0,0,1,.32,2.36l-4.23.63a18.74,18.74,0,0,0-.2-1.95,2.66,2.66,0,0,0-.54-1.32,1.49,1.49,0,0,0-1.21-.48,1.43,1.43,0,0,0-1.29.64,2.57,2.57,0,0,0-.42,1.43,3.55,3.55,0,0,0,.58,2.11,10.42,10.42,0,0,0,1.61,1.73l2.46,2.16a13.94,13.94,0,0,1,2.62,3,7.58,7.58,0,0,1,1.1,4.19,6.17,6.17,0,0,1-.78,3.09,5.59,5.59,0,0,1-2.18,2.16A6.6,6.6,0,0,1,727.15,338.35Z" transform="translate(-444.8 196.83)"/><path class="cls-5" d="M741.22,338.32a6.91,6.91,0,0,1-3.18-.68,4.51,4.51,0,0,1-2-2,6.87,6.87,0,0,1-.67-3.21v-6.24A6.87,6.87,0,0,1,736,323a4.53,4.53,0,0,1,2-2,7.88,7.88,0,0,1,6.36,0,4.61,4.61,0,0,1,2,2,6.75,6.75,0,0,1,.69,3.21v6.24a6.75,6.75,0,0,1-.69,3.21,4.59,4.59,0,0,1-2,2A6.91,6.91,0,0,1,741.22,338.32Zm0-3.06a1.15,1.15,0,0,0,.87-.32,1.6,1.6,0,0,0,.39-.87,8,8,0,0,0,.09-1.27v-6.87a8,8,0,0,0-.09-1.29,1.67,1.67,0,0,0-.39-.87,1.31,1.31,0,0,0-1.74,0,1.77,1.77,0,0,0-.41.87,6.9,6.9,0,0,0-.1,1.29v6.87a6.89,6.89,0,0,0,.1,1.27,1.69,1.69,0,0,0,.41.87A1.15,1.15,0,0,0,741.25,335.26Z" transform="translate(-444.8 196.83)"/><path class="cls-5" d="M750.07,338v-24.3h4.53V338Z" transform="translate(-444.8 196.83)"/><path class="cls-5" d="M760.72,338.32a2.82,2.82,0,0,1-1.76-.54,3.11,3.11,0,0,1-1-1.44,5.71,5.71,0,0,1-.33-2V320.68h4.53v13a2,2,0,0,0,.24,1.09,1,1,0,0,0,.87.38,1.76,1.76,0,0,0,.76-.2,7.72,7.72,0,0,0,.83-.46V320.68h4.53V338h-4.53V336.4a8,8,0,0,1-1.94,1.39A4.73,4.73,0,0,1,760.72,338.32Z" transform="translate(-444.8 196.83)"/><path class="cls-5" d="M777.67,338.2a6,6,0,0,1-2.82-.56,2.94,2.94,0,0,1-1.41-1.6,7.35,7.35,0,0,1-.39-2.55v-9.84h-1.71v-3h1.71v-5.25h4.59v5.25h2.52v3h-2.52v9.42a1.43,1.43,0,0,0,.4,1.15,1.7,1.7,0,0,0,1.13.35,5.09,5.09,0,0,0,.69-.05l.6-.07V338l-1.2.13C778.74,338.17,778.21,338.2,777.67,338.2Z" transform="translate(-444.8 196.83)"/><path class="cls-5" d="M782.83,317.83v-3.39h4.56v3.39Zm0,20.19V320.68h4.53V338Z" transform="translate(-444.8 196.83)"/><path class="cls-5" d="M796,338.32a6.87,6.87,0,0,1-3.17-.68,4.51,4.51,0,0,1-2-2,6.87,6.87,0,0,1-.67-3.21v-6.24a6.87,6.87,0,0,1,.67-3.21,4.53,4.53,0,0,1,2-2,6.87,6.87,0,0,1,3.17-.67,7,7,0,0,1,3.19.67,4.61,4.61,0,0,1,2,2,6.75,6.75,0,0,1,.69,3.21v6.24a6.75,6.75,0,0,1-.69,3.21,4.59,4.59,0,0,1-2,2A7,7,0,0,1,796,338.32Zm0-3.06a1.15,1.15,0,0,0,.87-.32,1.6,1.6,0,0,0,.39-.87,8,8,0,0,0,.09-1.27v-6.87a8,8,0,0,0-.09-1.29,1.67,1.67,0,0,0-.39-.87,1.31,1.31,0,0,0-1.74,0,1.69,1.69,0,0,0-.41.87,6.9,6.9,0,0,0-.1,1.29v6.87a6.89,6.89,0,0,0,.1,1.27,1.61,1.61,0,0,0,.41.87A1.15,1.15,0,0,0,796,335.26Z" transform="translate(-444.8 196.83)"/><path class="cls-5" d="M804.64,338V320.68h4.52v1.74a8.67,8.67,0,0,1,2-1.49,4.6,4.6,0,0,1,2.2-.55,2.72,2.72,0,0,1,1.76.54,3.29,3.29,0,0,1,1,1.42,5.71,5.71,0,0,1,.33,2V338h-4.5V325.09a2.07,2.07,0,0,0-.23-1.08.92.92,0,0,0-.85-.36,2,2,0,0,0-.8.19,5.33,5.33,0,0,0-.89.53V338Z" transform="translate(-444.8 196.83)"/><path class="cls-5" d="M824.47,338.32a6,6,0,0,1-3.71-1.1,7.08,7.08,0,0,1-2.27-3.37l3.19-1.32a5.89,5.89,0,0,0,1.08,2,1.91,1.91,0,0,0,1.47.71,1.36,1.36,0,0,0,.94-.29,1,1,0,0,0,.32-.79,2,2,0,0,0-.48-1.29,14.57,14.57,0,0,0-1.71-1.59l-1.62-1.38a12.5,12.5,0,0,1-2-2.15,4.42,4.42,0,0,1-.76-2.65,4.31,4.31,0,0,1,.7-2.46,4.79,4.79,0,0,1,1.89-1.64,5.7,5.7,0,0,1,2.57-.58,5.06,5.06,0,0,1,3.49,1.21,6.12,6.12,0,0,1,1.85,3.29l-2.94,1.32A7.19,7.19,0,0,0,826,325a3.09,3.09,0,0,0-.77-1,1.58,1.58,0,0,0-1-.39,1.17,1.17,0,0,0-.86.33,1.14,1.14,0,0,0-.33.84,1.73,1.73,0,0,0,.55,1.14,18.39,18.39,0,0,0,1.55,1.44l1.62,1.44c.47.42.94.86,1.41,1.33a6.65,6.65,0,0,1,1.14,1.56,4.18,4.18,0,0,1,.45,2,4.4,4.4,0,0,1-.72,2.55,4.57,4.57,0,0,1-1.91,1.59A6.16,6.16,0,0,1,824.47,338.32Z" transform="translate(-444.8 196.83)"/><text x="-444.8" y="196.83"/><text x="-444.8" y="196.83"/><path class="cls-6" d="M549.24,456.82v1.51a72.55,72.55,0,0,1-42.06,65.85,59.22,59.22,0,0,0,32.86-53h0a59.18,59.18,0,0,0-59.22-59.22,15.55,15.55,0,0,0-15.55,15.55V489.2a14.78,14.78,0,0,1-.07-1.5V400.34a15.55,15.55,0,0,1,15.54-15.55,60.29,60.29,0,0,1,10.13.86,72.51,72.51,0,0,1,58.37,71.17Z" transform="translate(-444.8 196.83)"/><path class="cls-3" d="M540,471.13h0a59.22,59.22,0,0,1-32.86,53,71.54,71.54,0,0,1-16.74,5.4h0a73,73,0,0,1-13.73,1.29h-8.44a22.94,22.94,0,0,1-22.95-22.95V407.22a22.94,22.94,0,0,1,22.95-23h8.44a72.85,72.85,0,0,1,14.18,1.38,60.29,60.29,0,0,0-10.13-.86,15.55,15.55,0,0,0-15.54,15.55V487.7a14.78,14.78,0,0,0,.07,1.5,15.54,15.54,0,0,0,15.47,14,59.26,59.26,0,0,0,57.7-45.82A59,59,0,0,1,540,471.13Z" transform="translate(-444.8 196.83)"/><path class="cls-4" d="M584.49,471.87V434.64h9.1a18,18,0,0,1,7.37,1.22,7.13,7.13,0,0,1,3.75,3.81,17,17,0,0,1,1.1,6.64v13.56a17.9,17.9,0,0,1-1.1,6.81,7.33,7.33,0,0,1-3.7,3.93,16.89,16.89,0,0,1-7.24,1.26Zm7.58-5.28h1.61a5.21,5.21,0,0,0,3-.67,3,3,0,0,0,1.13-2,19.47,19.47,0,0,0,.23-3.24V445.35a12.9,12.9,0,0,0-.3-3.1,2.73,2.73,0,0,0-1.2-1.73,5.9,5.9,0,0,0-2.92-.55h-1.56Z" transform="translate(-444.8 196.83)"/><path class="cls-4" d="M610.92,471.87V434.64h7.53v37.23Z" transform="translate(-444.8 196.83)"/><path class="cls-4" d="M633.67,472.42a10.12,10.12,0,0,1-6-1.58,8.63,8.63,0,0,1-3.15-4.51,22.3,22.3,0,0,1-.94-6.78V447.1a21.71,21.71,0,0,1,1-6.9,8.24,8.24,0,0,1,3.38-4.46,11.92,11.92,0,0,1,6.54-1.56,12.84,12.84,0,0,1,6.33,1.33,7.69,7.69,0,0,1,3.33,3.77,15.18,15.18,0,0,1,1,5.79v2.16h-7.4v-2.62a16.52,16.52,0,0,0-.18-2.59,3.09,3.09,0,0,0-.86-1.77,3,3,0,0,0-2.13-.65,2.78,2.78,0,0,0-2.21.79,3.75,3.75,0,0,0-.87,2,16.34,16.34,0,0,0-.19,2.59v16.5a13.23,13.23,0,0,0,.28,2.81,3.6,3.6,0,0,0,1,1.93,3.16,3.16,0,0,0,2.19.69,3.08,3.08,0,0,0,2.2-.74,3.88,3.88,0,0,0,1.08-2,12.46,12.46,0,0,0,.3-2.87v-3.95h-3.63v-4.6h10.48v19.12h-5l-.46-3.35a6.89,6.89,0,0,1-2.21,2.8A6.41,6.41,0,0,1,633.67,472.42Z" transform="translate(-444.8 196.83)"/><path class="cls-4" d="M650.54,471.87V434.64h7.54v37.23Z" transform="translate(-444.8 196.83)"/><path class="cls-4" d="M667.27,471.87V440.29h-5.75v-5.65h19v5.65H674.9v31.58Z" transform="translate(-444.8 196.83)"/><path class="cls-4" d="M680.73,471.87,688,434.64h8.41l7.17,37.23h-7l-1.33-8.18h-5.89l-1.42,8.18ZM690,459.05h4.46l-2.25-15Z" transform="translate(-444.8 196.83)"/><path class="cls-4" d="M707,471.87V434.64h7.58v32.08h8.73v5.15Z" transform="translate(-444.8 196.83)"/><path class="cls-4" d="M747.8,472.38a11.73,11.73,0,0,1-5.75-1.27,8,8,0,0,1-3.47-3.81,17.62,17.62,0,0,1-1.35-6.51l6.52-1.1a18.29,18.29,0,0,0,.49,3.84,4.56,4.56,0,0,0,1.19,2.3,2.83,2.83,0,0,0,2,.76,2.11,2.11,0,0,0,2-.92,4.22,4.22,0,0,0,.53-2.12,6.63,6.63,0,0,0-1.13-3.93,18.7,18.7,0,0,0-3-3.19L742,453.07a15.4,15.4,0,0,1-3.38-3.95,10.4,10.4,0,0,1-1.31-5.43c0-3.06.89-5.41,2.69-7.05a10.5,10.5,0,0,1,7.37-2.46,10.09,10.09,0,0,1,4.6.92,7,7,0,0,1,2.78,2.46,10.06,10.06,0,0,1,1.38,3.35,22.79,22.79,0,0,1,.48,3.61l-6.48,1a27.88,27.88,0,0,0-.3-3,4.12,4.12,0,0,0-.82-2,2.33,2.33,0,0,0-1.87-.74,2.18,2.18,0,0,0-2,1,3.92,3.92,0,0,0-.65,2.18,5.44,5.44,0,0,0,.9,3.24,15.82,15.82,0,0,0,2.46,2.65l3.77,3.31a21.61,21.61,0,0,1,4,4.62,11.56,11.56,0,0,1,1.68,6.41,9.4,9.4,0,0,1-1.2,4.73,8.48,8.48,0,0,1-3.33,3.31A10.09,10.09,0,0,1,747.8,472.38Z" transform="translate(-444.8 196.83)"/><path class="cls-4" d="M771.74,472.38a12.34,12.34,0,0,1-6.48-1.47,8.21,8.21,0,0,1-3.42-4.21,18.52,18.52,0,0,1-1-6.55V446.27a18.37,18.37,0,0,1,1-6.53,8,8,0,0,1,3.42-4.14,12.76,12.76,0,0,1,6.48-1.42,12.62,12.62,0,0,1,6.55,1.45,8,8,0,0,1,3.45,4.14,18.12,18.12,0,0,1,1,6.5v13.88a18.52,18.52,0,0,1-1,6.55,8.17,8.17,0,0,1-3.45,4.21A12.51,12.51,0,0,1,771.74,472.38Zm0-5.47a3.06,3.06,0,0,0,2.17-.67,3.36,3.36,0,0,0,.91-1.79,11.63,11.63,0,0,0,.23-2.42v-17.6a11.27,11.27,0,0,0-.23-2.39,3.41,3.41,0,0,0-.91-1.77,3.06,3.06,0,0,0-2.17-.67,2.88,2.88,0,0,0-2.06.67,3.35,3.35,0,0,0-.92,1.77,11.27,11.27,0,0,0-.23,2.39V462a14.19,14.19,0,0,0,.2,2.42,3.22,3.22,0,0,0,.9,1.79A3,3,0,0,0,771.74,466.91Z" transform="translate(-444.8 196.83)"/><path class="cls-4" d="M787.83,471.87V434.64h7.59v32.08h8.73v5.15Z" transform="translate(-444.8 196.83)"/><path class="cls-4" d="M817.62,472.38a12.61,12.61,0,0,1-6.58-1.45,7.72,7.72,0,0,1-3.28-4.18,20.53,20.53,0,0,1-.94-6.65V434.64h7.49v26.52a17.38,17.38,0,0,0,.21,2.71,4.18,4.18,0,0,0,.91,2.16,2.72,2.72,0,0,0,2.19.83,2.77,2.77,0,0,0,2.23-.83,4.09,4.09,0,0,0,.89-2.16,18.69,18.69,0,0,0,.19-2.71V434.64h7.49V460.1a20.81,20.81,0,0,1-.94,6.65,7.74,7.74,0,0,1-3.29,4.18A12.55,12.55,0,0,1,817.62,472.38Z" transform="translate(-444.8 196.83)"/><path class="cls-4" d="M837.2,471.87V440.29h-5.75v-5.65h19v5.65h-5.65v31.58Z" transform="translate(-444.8 196.83)"/><path class="cls-4" d="M853.93,471.87V434.64h7.54v37.23Z" transform="translate(-444.8 196.83)"/><path class="cls-4" d="M877.55,472.38a12.34,12.34,0,0,1-6.48-1.47,8.21,8.21,0,0,1-3.42-4.21,18.52,18.52,0,0,1-1-6.55V446.27a18.37,18.37,0,0,1,1-6.53,8,8,0,0,1,3.42-4.14,15.51,15.51,0,0,1,13,0,8,8,0,0,1,3.45,4.14,18.12,18.12,0,0,1,1,6.5v13.88a18.52,18.52,0,0,1-1,6.55,8.17,8.17,0,0,1-3.45,4.21A12.54,12.54,0,0,1,877.55,472.38Zm0-5.47a3,3,0,0,0,2.16-.67,3.31,3.31,0,0,0,.92-1.79,11.63,11.63,0,0,0,.23-2.42v-17.6a11.27,11.27,0,0,0-.23-2.39,3.35,3.35,0,0,0-.92-1.77,3,3,0,0,0-2.16-.67,2.87,2.87,0,0,0-2.06.67,3.35,3.35,0,0,0-.92,1.77,11.27,11.27,0,0,0-.23,2.39V462a14.19,14.19,0,0,0,.2,2.42,3.22,3.22,0,0,0,.9,1.79A3,3,0,0,0,877.55,466.91Z" transform="translate(-444.8 196.83)"/><path class="cls-4" d="M893.64,471.87V434.64h5.29L907.2,454v-19.4h6.25v37.23H908.4l-8.28-20.59v20.59Z" transform="translate(-444.8 196.83)"/><path class="cls-5" d="M584.83,499.45V483.66H582v-2.82h9.51v2.82h-2.82v15.79Z" transform="translate(-444.8 196.83)"/><path class="cls-5" d="M593,499.45V480.84h3.44v6.55a5.41,5.41,0,0,1,1.54-1.08,4.1,4.1,0,0,1,1.75-.37,2,2,0,0,1,1.32.41,2.47,2.47,0,0,1,.77,1.09A4.31,4.31,0,0,1,602,489v10.48h-3.46v-9.9a1.63,1.63,0,0,0-.17-.83.66.66,0,0,0-.64-.28,1.68,1.68,0,0,0-.63.15,4.83,4.83,0,0,0-.73.4v10.46Z" transform="translate(-444.8 196.83)"/><path class="cls-5" d="M608.5,499.68a5.09,5.09,0,0,1-2.46-.54,3.48,3.48,0,0,1-1.49-1.59A5.64,5.64,0,0,1,604,495v-4.46a5.66,5.66,0,0,1,.51-2.54,3.47,3.47,0,0,1,1.52-1.56,5.07,5.07,0,0,1,2.43-.54,4.82,4.82,0,0,1,2.46.55,3.28,3.28,0,0,1,1.39,1.61,6.53,6.53,0,0,1,.45,2.57V493h-5.33v2.58a3.11,3.11,0,0,0,.12.94,1,1,0,0,0,1.5.52.92.92,0,0,0,.36-.47,2.85,2.85,0,0,0,.11-.86v-1.26h3.22v1.1a4,4,0,0,1-1.11,3.08A4.37,4.37,0,0,1,608.5,499.68Zm-1-8.34h2.09V490a3.28,3.28,0,0,0-.11-.93.91.91,0,0,0-.36-.51,1.15,1.15,0,0,0-.61-.15,1,1,0,0,0-.56.16,1,1,0,0,0-.34.57,4.59,4.59,0,0,0-.11,1.13Z" transform="translate(-444.8 196.83)"/><path class="cls-5" d="M620.84,499.45V480.84h4.72a11.35,11.35,0,0,1,2.25.2,5,5,0,0,1,1.82.74,3.37,3.37,0,0,1,1.22,1.46,5.76,5.76,0,0,1,.43,2.42,5.21,5.21,0,0,1-.32,1.92,2.9,2.9,0,0,1-.92,1.25,3.27,3.27,0,0,1-1.47.62,3.84,3.84,0,0,1,1.81.74,3.52,3.52,0,0,1,1.11,1.52,6.32,6.32,0,0,1,.36,2.27,7.71,7.71,0,0,1-.35,2.44,4.3,4.3,0,0,1-1,1.7,4.43,4.43,0,0,1-1.7,1,7.55,7.55,0,0,1-2.34.33Zm3.8-11.1h.94a3.06,3.06,0,0,0,1.49-.29,1.49,1.49,0,0,0,.7-.87,4.59,4.59,0,0,0,.2-1.44,2.8,2.8,0,0,0-.29-1.36,1.61,1.61,0,0,0-.87-.75,4.18,4.18,0,0,0-1.48-.23h-.69Zm0,8.43h1.05a2.33,2.33,0,0,0,2-.71,3.49,3.49,0,0,0,.54-2.14,5.16,5.16,0,0,0-.25-1.75,1.84,1.84,0,0,0-.82-1,3.11,3.11,0,0,0-1.51-.31h-1Z" transform="translate(-444.8 196.83)"/><path class="cls-5" d="M638,499.68a5.09,5.09,0,0,1-2.46-.54,3.48,3.48,0,0,1-1.49-1.59,5.64,5.64,0,0,1-.51-2.51v-4.46a5.66,5.66,0,0,1,.51-2.54,3.47,3.47,0,0,1,1.52-1.56,5.07,5.07,0,0,1,2.43-.54,4.82,4.82,0,0,1,2.46.55,3.28,3.28,0,0,1,1.39,1.61,6.53,6.53,0,0,1,.45,2.57V493H637v2.58a3.11,3.11,0,0,0,.12.94,1,1,0,0,0,.36.52,1,1,0,0,0,.57.15,1.05,1.05,0,0,0,.57-.15.85.85,0,0,0,.35-.47,2.54,2.54,0,0,0,.12-.86v-1.26h3.22v1.1a4,4,0,0,1-1.11,3.08A4.37,4.37,0,0,1,638,499.68Zm-1-8.34h2.09V490a2.91,2.91,0,0,0-.12-.93.86.86,0,0,0-.35-.51,1.15,1.15,0,0,0-.61-.15,1,1,0,0,0-.56.16,1,1,0,0,0-.34.57,4.59,4.59,0,0,0-.11,1.13Z" transform="translate(-444.8 196.83)"/><path class="cls-5" d="M648.26,499.68a4.6,4.6,0,0,1-2.84-.84,5.37,5.37,0,0,1-1.73-2.58l2.43-1a4.53,4.53,0,0,0,.83,1.51,1.47,1.47,0,0,0,1.13.54,1,1,0,0,0,.72-.22.78.78,0,0,0,.24-.61,1.51,1.51,0,0,0-.37-1,11.24,11.24,0,0,0-1.3-1.21l-1.25-1.06a9.71,9.71,0,0,1-1.55-1.64,3.44,3.44,0,0,1-.58-2,3.27,3.27,0,0,1,.54-1.88,3.57,3.57,0,0,1,1.44-1.25,4.38,4.38,0,0,1,2-.45,3.89,3.89,0,0,1,2.68.93,4.69,4.69,0,0,1,1.41,2.51l-2.25,1a5,5,0,0,0-.37-1,2.31,2.31,0,0,0-.59-.75,1.22,1.22,0,0,0-.79-.29.87.87,0,0,0-.92.89,1.32,1.32,0,0,0,.43.88,13.86,13.86,0,0,0,1.18,1.1l1.24,1.1q.56.48,1.08,1a5,5,0,0,1,.87,1.2,3.09,3.09,0,0,1,.35,1.51,3.36,3.36,0,0,1-.55,1.95,3.54,3.54,0,0,1-1.46,1.22A4.85,4.85,0,0,1,648.26,499.68Z" transform="translate(-444.8 196.83)"/><path class="cls-5" d="M657.87,499.59a4.47,4.47,0,0,1-2.16-.43,2.24,2.24,0,0,1-1.08-1.23,5.55,5.55,0,0,1-.3-1.95v-7.54H653v-2.27h1.31v-4h3.52v4h1.93v2.27h-1.93v7.22a1.08,1.08,0,0,0,.31.88,1.25,1.25,0,0,0,.86.27,3.08,3.08,0,0,0,.53,0l.46,0v2.71l-.92.1C658.69,499.57,658.28,499.59,657.87,499.59Z" transform="translate(-444.8 196.83)"/><path class="cls-5" d="M672.94,499.7a6.17,6.17,0,0,1-3.24-.73,4.13,4.13,0,0,1-1.71-2.11,9.35,9.35,0,0,1-.52-3.27v-6.94a9.25,9.25,0,0,1,.52-3.26,4,4,0,0,1,1.71-2.07,6.27,6.27,0,0,1,3.24-.72,6.4,6.4,0,0,1,3.28.73,4,4,0,0,1,1.72,2.07,8.93,8.93,0,0,1,.52,3.25v6.94a9.12,9.12,0,0,1-.52,3.27,4,4,0,0,1-1.72,2.11A6.3,6.3,0,0,1,672.94,499.7Zm0-2.73a1.52,1.52,0,0,0,1.08-.33,1.69,1.69,0,0,0,.46-.9,5.84,5.84,0,0,0,.12-1.21v-8.8a5.68,5.68,0,0,0-.12-1.2,1.63,1.63,0,0,0-.46-.88,1.52,1.52,0,0,0-1.08-.33,1.45,1.45,0,0,0-1,.33,1.7,1.7,0,0,0-.46.88,5.69,5.69,0,0,0-.11,1.2v8.8a6.66,6.66,0,0,0,.1,1.21,1.68,1.68,0,0,0,.45.9A1.47,1.47,0,0,0,672.94,497Z" transform="translate(-444.8 196.83)"/><path class="cls-5" d="M681.31,499.45V488.53H680v-2.36h1.33v-.92a7.85,7.85,0,0,1,.24-2.07,2.31,2.31,0,0,1,1-1.36,4.18,4.18,0,0,1,2.25-.48l.86,0c.27,0,.57.05.91.1V484l-.4-.08a3.28,3.28,0,0,0-.43,0,.86.86,0,0,0-.71.29,1.48,1.48,0,0,0-.23.91v1.06h1.77v2.36h-1.77v10.92Z" transform="translate(-444.8 196.83)"/><path class="cls-5" d="M696.36,499.45v-7.38l-3.63-11.23h3.56l2,6.55,1.86-6.55h3.45L700,492.07v7.38Z" transform="translate(-444.8 196.83)"/><path class="cls-5" d="M708.84,499.68a5.19,5.19,0,0,1-2.43-.52,3.37,3.37,0,0,1-1.53-1.5,5.21,5.21,0,0,1-.52-2.46v-4.78a5.21,5.21,0,0,1,.52-2.46,3.44,3.44,0,0,1,1.53-1.51,5.32,5.32,0,0,1,2.43-.51,5.39,5.39,0,0,1,2.44.51,3.56,3.56,0,0,1,1.54,1.51,5.21,5.21,0,0,1,.53,2.46v4.78a5.21,5.21,0,0,1-.53,2.46,3.49,3.49,0,0,1-1.54,1.5A5.26,5.26,0,0,1,708.84,499.68Zm0-2.34a.86.86,0,0,0,.66-.24,1.34,1.34,0,0,0,.3-.67,5.78,5.78,0,0,0,.07-1v-5.26a5.75,5.75,0,0,0-.07-1,1.34,1.34,0,0,0-.3-.67,1,1,0,0,0-1.33,0,1.35,1.35,0,0,0-.31.67,4.83,4.83,0,0,0-.08,1v5.26a4.86,4.86,0,0,0,.08,1,1.35,1.35,0,0,0,.31.67A.87.87,0,0,0,708.87,497.34Z" transform="translate(-444.8 196.83)"/><path class="cls-5" d="M717.71,499.68a2.18,2.18,0,0,1-1.34-.41,2.36,2.36,0,0,1-.79-1.11,4.31,4.31,0,0,1-.26-1.51V486.17h3.47v10a1.49,1.49,0,0,0,.19.84.72.72,0,0,0,.66.29,1.36,1.36,0,0,0,.59-.15,5.06,5.06,0,0,0,.63-.36V486.17h3.47v13.28h-3.47v-1.24a6.25,6.25,0,0,1-1.48,1.07A3.64,3.64,0,0,1,717.71,499.68Z" transform="translate(-444.8 196.83)"/><path class="cls-5" d="M726.77,499.45V486.17h3.47v2.13a6.31,6.31,0,0,1,1.32-1.73,2.28,2.28,0,0,1,1.55-.56h.29a1,1,0,0,1,.24.05v3.5a3.56,3.56,0,0,0-.58-.2,2.84,2.84,0,0,0-.66-.08,2.08,2.08,0,0,0-1.17.34,3.54,3.54,0,0,0-1,.95v8.87Z" transform="translate(-444.8 196.83)"/><path class="cls-5" d="M746,499.7a5.92,5.92,0,0,1-2.87-.63,4,4,0,0,1-1.73-1.91,8.58,8.58,0,0,1-.68-3.25l3.26-.55a9.43,9.43,0,0,0,.24,1.92,2.32,2.32,0,0,0,.6,1.15,1.41,1.41,0,0,0,1,.38,1.07,1.07,0,0,0,1-.46,2.16,2.16,0,0,0,.26-1.06,3.24,3.24,0,0,0-.56-2,9.35,9.35,0,0,0-1.48-1.6l-1.93-1.68a7.74,7.74,0,0,1-1.69-2,5.18,5.18,0,0,1-.66-2.71,4.54,4.54,0,0,1,1.35-3.53,5.29,5.29,0,0,1,3.69-1.23,5.07,5.07,0,0,1,2.29.46,3.58,3.58,0,0,1,1.4,1.23,5.35,5.35,0,0,1,.68,1.68,11.41,11.41,0,0,1,.25,1.81l-3.24.48c0-.57-.08-1.07-.15-1.49a2.07,2.07,0,0,0-.42-1,1.14,1.14,0,0,0-.93-.36,1.11,1.11,0,0,0-1,.49,2,2,0,0,0-.32,1.09,2.72,2.72,0,0,0,.45,1.62,8.1,8.1,0,0,0,1.23,1.32l1.88,1.66a10.36,10.36,0,0,1,2,2.31,5.83,5.83,0,0,1,.83,3.2,4.79,4.79,0,0,1-.59,2.37,4.3,4.3,0,0,1-1.67,1.66A5.16,5.16,0,0,1,746,499.7Z" transform="translate(-444.8 196.83)"/><path class="cls-5" d="M756.78,499.68a5.19,5.19,0,0,1-2.43-.52,3.37,3.37,0,0,1-1.53-1.5,5.21,5.21,0,0,1-.52-2.46v-4.78a5.21,5.21,0,0,1,.52-2.46,3.44,3.44,0,0,1,1.53-1.51,5.32,5.32,0,0,1,2.43-.51,5.39,5.39,0,0,1,2.44.51,3.56,3.56,0,0,1,1.54,1.51,5.21,5.21,0,0,1,.53,2.46v4.78a5.21,5.21,0,0,1-.53,2.46,3.49,3.49,0,0,1-1.54,1.5A5.26,5.26,0,0,1,756.78,499.68Zm0-2.34a.86.86,0,0,0,.66-.24,1.34,1.34,0,0,0,.3-.67,5.78,5.78,0,0,0,.07-1v-5.26a5.75,5.75,0,0,0-.07-1,1.34,1.34,0,0,0-.3-.67,1,1,0,0,0-1.33,0,1.35,1.35,0,0,0-.31.67,5.66,5.66,0,0,0-.08,1v5.26a5.71,5.71,0,0,0,.08,1,1.35,1.35,0,0,0,.31.67A.87.87,0,0,0,756.81,497.34Z" transform="translate(-444.8 196.83)"/><path class="cls-5" d="M763.56,499.45V480.84H767v18.61Z" transform="translate(-444.8 196.83)"/><path class="cls-5" d="M771.72,499.68a2.16,2.16,0,0,1-1.34-.41,2.45,2.45,0,0,1-.8-1.11,4.31,4.31,0,0,1-.25-1.51V486.17h3.47v10a1.59,1.59,0,0,0,.18.84.75.75,0,0,0,.67.29,1.39,1.39,0,0,0,.59-.15,7.07,7.07,0,0,0,.63-.36V486.17h3.47v13.28h-3.47v-1.24a6.25,6.25,0,0,1-1.48,1.07A3.64,3.64,0,0,1,771.72,499.68Z" transform="translate(-444.8 196.83)"/><path class="cls-5" d="M784.7,499.59a4.53,4.53,0,0,1-2.16-.43,2.24,2.24,0,0,1-1.08-1.23,5.81,5.81,0,0,1-.29-1.95v-7.54h-1.31v-2.27h1.31v-4h3.51v4h1.93v2.27h-1.93v7.22a1.12,1.12,0,0,0,.31.88,1.28,1.28,0,0,0,.86.27,3,3,0,0,0,.53,0l.46,0v2.71l-.92.1A12.16,12.16,0,0,1,784.7,499.59Z" transform="translate(-444.8 196.83)"/><path class="cls-5" d="M788.66,484v-2.59h3.49V484Zm0,15.47V486.17h3.47v13.28Z" transform="translate(-444.8 196.83)"/><path class="cls-5" d="M798.75,499.68a5.23,5.23,0,0,1-2.44-.52,3.47,3.47,0,0,1-1.53-1.5,5.33,5.33,0,0,1-.52-2.46v-4.78a5.33,5.33,0,0,1,.52-2.46,3.54,3.54,0,0,1,1.53-1.51,6.07,6.07,0,0,1,4.87,0,3.51,3.51,0,0,1,1.54,1.51,5.09,5.09,0,0,1,.53,2.46v4.78a5.09,5.09,0,0,1-.53,2.46,3.44,3.44,0,0,1-1.54,1.5A5.19,5.19,0,0,1,798.75,499.68Zm0-2.34a.9.9,0,0,0,.67-.24,1.25,1.25,0,0,0,.29-.67,5.78,5.78,0,0,0,.07-1v-5.26a5.75,5.75,0,0,0-.07-1,1.25,1.25,0,0,0-.29-.67,1,1,0,0,0-1.34,0,1.44,1.44,0,0,0-.31.67,5.66,5.66,0,0,0-.08,1v5.26a5.71,5.71,0,0,0,.08,1,1.44,1.44,0,0,0,.31.67A.9.9,0,0,0,798.77,497.34Z" transform="translate(-444.8 196.83)"/><path class="cls-5" d="M805.37,499.45V486.17h3.47v1.33a6.34,6.34,0,0,1,1.5-1.14,3.56,3.56,0,0,1,1.69-.42,2,2,0,0,1,1.34.41,2.49,2.49,0,0,1,.78,1.09,4.54,4.54,0,0,1,.25,1.53v10.48H811v-9.9a1.63,1.63,0,0,0-.17-.83.71.71,0,0,0-.66-.28,1.55,1.55,0,0,0-.61.15,4.38,4.38,0,0,0-.67.4v10.46Z" transform="translate(-444.8 196.83)"/><path class="cls-5" d="M820.56,499.68a4.58,4.58,0,0,1-2.84-.84,5.46,5.46,0,0,1-1.74-2.58l2.44-1a4.53,4.53,0,0,0,.83,1.51,1.45,1.45,0,0,0,1.12.54,1,1,0,0,0,.73-.22.78.78,0,0,0,.24-.61,1.51,1.51,0,0,0-.37-1,10.72,10.72,0,0,0-1.31-1.21l-1.24-1.06a9.71,9.71,0,0,1-1.55-1.64,3.44,3.44,0,0,1-.59-2,3.27,3.27,0,0,1,.54-1.88,3.53,3.53,0,0,1,1.45-1.25,4.35,4.35,0,0,1,2-.45,3.86,3.86,0,0,1,2.67.93,4.7,4.7,0,0,1,1.42,2.51l-2.26,1a5,5,0,0,0-.36-1,2.46,2.46,0,0,0-.59-.75,1.24,1.24,0,0,0-.79-.29.9.9,0,0,0-.67.25.86.86,0,0,0-.25.64,1.35,1.35,0,0,0,.42.88,16,16,0,0,0,1.19,1.1l1.24,1.1q.56.48,1.08,1a5.32,5.32,0,0,1,.87,1.2,3.2,3.2,0,0,1,.35,1.51,3.37,3.37,0,0,1-.56,1.95,3.42,3.42,0,0,1-1.46,1.22A4.77,4.77,0,0,1,820.56,499.68Z" transform="translate(-444.8 196.83)"/></svg>